<svg width="24" height="24" viewBox="0 0 24 18" fill="none" xmlns="http://www.w3.org/2000/svg">
<g id="Group">
<path id="Vector" d="M19.5652 1.4911C18.0764 0.794514 16.4845 0.288264 14.8201 0C14.6157 0.369544 14.3769 0.866588 14.2123 1.26198C12.4431 0.995917 10.6901 0.995917 8.95347 1.26198C8.78887 0.866588 8.54465 0.369544 8.33842 0C6.6723 0.288264 5.07855 0.796374 3.58972 1.49479C0.586731 6.03269 -0.227329 10.4579 0.179701 14.8202C2.17144 16.3076 4.10167 17.2112 5.99933 17.8024C6.46787 17.1576 6.88575 16.4721 7.24574 15.7496C6.56013 15.4891 5.90345 15.1676 5.28298 14.7944C5.44759 14.6724 5.6086 14.5449 5.76416 14.4137C9.54863 16.1838 13.6606 16.1838 17.3998 14.4137C17.5572 14.5449 17.7182 14.6724 17.881 14.7944C17.2587 15.1694 16.6002 15.4909 15.9146 15.7515C16.2746 16.4721 16.6907 17.1594 17.161 17.8042C19.0605 17.213 20.9925 16.3095 22.9843 14.8202C23.4619 9.76316 22.1684 5.37861 19.5652 1.4911ZM7.76132 12.1374C6.62526 12.1374 5.6936 11.0768 5.6936 9.78532C5.6936 8.4938 6.60537 7.43139 7.76132 7.43139C8.91731 7.43139 9.84894 8.49194 9.82905 9.78532C9.83084 11.0768 8.91731 12.1374 7.76132 12.1374ZM15.4027 12.1374C14.2666 12.1374 13.3349 11.0768 13.3349 9.78532C13.3349 8.4938 14.2467 7.43139 15.4027 7.43139C16.5586 7.43139 17.4903 8.49194 17.4704 9.78532C17.4704 11.0768 16.5586 12.1374 15.4027 12.1374Z" fill="white"/>
</g>
</svg>
